<?xml version="1.0" encoding="UTF-8"?>
<!DOCTYPE svg PUBLIC "-//W3C//DTD SVG 1.0//EN" "http://www.w3.org/TR/2001/REC-SVG-20010904/DTD/svg10.dtd">
<!-- Creator: CorelDRAW 2020 (64-Bit) -->
<?xml-stylesheet href="oneca.css" type="text/css"?>
<svg xmlns="http://www.w3.org/2000/svg" xml:space="preserve" width="2406px" height="547px" version="1.0" style="shape-rendering:geometricPrecision; text-rendering:geometricPrecision; image-rendering:optimizeQuality; fill-rule:evenodd; clip-rule:evenodd"
viewBox="0 0 4828.74 1097.44"
 xmlns:xlink="http://www.w3.org/1999/xlink"
 xmlns:xodm="http://www.corel.com/coreldraw/odm/2003">
 <g id="Слой_x0020_1">
  <metadata id="CorelCorpID_0Corel-Layer"/>
  <path class="fil0" d="M219.49 219.49l0 658.46 877.95 0 0 -658.46 -877.95 0zm1755.9 0l0 865.41c0,6.92 -5.61,12.54 -12.54,12.54l-194.4 0c-6.93,0 -12.54,-5.62 -12.54,-12.54l0 -640.71 0.03 0c0,-3.23 1.25,-6.47 3.74,-8.92l105.99 -104c0.32,-0.34 0.67,-0.66 1.03,-0.97l-0.01 -110.81 -98.24 0c-6.93,0 -12.54,-5.62 -12.54,-12.54l0 -194.41c0,-6.92 5.61,-12.54 12.54,-12.54l201.73 0 0 0.04c3.24,0 6.47,1.24 8.92,3.73 72.54,73.93 144.89,147.31 216.99,220.1 68.96,69.62 141.06,142.04 216.21,217.2 75.59,75.58 148.48,148.14 218.6,217.59 73.35,72.66 147.3,145.56 221.79,218.65l0.63 0.67c0.03,0 -0.01,-0.03 0.03,-0.03l0 -865.41c0,-6.92 5.62,-12.54 12.54,-12.54l194.4 0c6.93,0 12.55,5.62 12.55,12.54l0 640.71 -0.04 0c0,3.24 -1.25,6.47 -3.74,8.92l-105.99 104c-0.32,0.34 -0.66,0.66 -1.03,0.97l0.01 110.81 98.24 0c6.93,0 12.55,5.62 12.55,12.55l0 194.4c0,6.92 -5.62,12.54 -12.55,12.54l-201.73 0 0 -0.04c-3.23,0 -6.47,-1.24 -8.91,-3.73 -72.36,-73.74 -144.66,-147.06 -216.76,-219.86 -68.99,-69.63 -141.17,-142.15 -216.44,-217.42 -75.74,-75.73 -148.75,-148.41 -218.91,-217.9 -73.33,-72.64 -147.2,-145.46 -221.49,-218.35l-0.62 -0.68c-0.03,0 0.01,0.03 -0.04,0.03zm-671 877.95l-1291.85 0c-6.92,0 -12.54,-5.62 -12.54,-12.54l0 -640.71 0.04 0c0,-3.23 1.24,-6.47 3.73,-8.92l106 -104c0.32,-0.34 0.66,-0.66 1.02,-0.97l-0.01 -110.81 -98.24 0c-6.92,0 -12.54,-5.62 -12.54,-12.54l0 -194.41c0,-6.92 5.62,-12.54 12.54,-12.54l1291.85 0c6.92,0 12.54,5.62 12.54,12.54l0 640.71 -0.04 0c0,3.24 -1.24,6.47 -3.73,8.92l-106 104c-0.32,0.34 -0.66,0.66 -1.02,0.97l0.01 110.81 98.24 0c6.92,0 12.54,5.62 12.54,12.55l0 194.4c0,6.92 -5.62,12.54 -12.54,12.54z"/>
  <path class="fil1" d="M3524.36 0l1291.84 0c6.93,0 12.54,5.62 12.54,12.54l0 194.41c0,6.92 -5.61,12.54 -12.54,12.54l-1291.84 0c-6.93,0 -12.55,-5.62 -12.55,-12.54l0 -194.41c0,-6.92 5.62,-12.54 12.55,-12.54z"/>
  <path class="fil2" d="M3524.36 438.98l1291.84 0c6.93,0 12.54,5.61 12.54,12.54l0 194.4c0,6.93 -5.61,12.54 -12.54,12.54l-1291.84 0c-6.93,0 -12.55,-5.61 -12.55,-12.54l0 -194.4c0,-6.93 5.62,-12.54 12.55,-12.54z"/>
  <path class="fil3" d="M3524.36 877.95l1291.84 0c6.93,0 12.54,5.62 12.54,12.55l0 194.4c0,6.92 -5.61,12.54 -12.54,12.54l-1291.84 0c-6.93,0 -12.55,-5.62 -12.55,-12.54l0 -194.4c0,-6.93 5.62,-12.55 12.55,-12.55z"/>
 </g>
</svg>
